<svg width="30px" height="18px" viewBox="110 4 30 18" version="1.1" xmlns="http://www.w3.org/2000/svg" xmlns:xlink="http://www.w3.org/1999/xlink">
	<path d="M126.885042,21.5104313 C127.181854,21.4740054 127.460476,21.3486149 127.683849,21.1509375 C127.843448,20.918781 127.924813,20.642265 127.916229,20.3612063 C127.916229,20.3612063 127.887181,17.9183813 128.96194,17.5632188 C130.036698,17.2080563 131.401932,19.8992063 132.854309,20.9300438 C133.390919,21.3783908 134.089591,21.5872696 134.785969,21.5075438 L138.663814,21.5075438 C138.663814,21.5075438 140.697141,21.3487313 139.738572,19.6941938 C138.974001,18.3886427 137.997404,17.2178331 136.848343,16.2291938 C134.408351,13.888875 134.742398,14.2671375 137.676198,10.2188625 C139.462621,7.7529375 140.174285,6.24710625 139.956429,5.5988625 C139.564885,5.1876127 138.993379,4.99661908 138.431434,5.08921875 L134.059781,5.08921875 C133.863533,5.07234364 133.666612,5.11299976 133.493354,5.2061625 C133.316399,5.34144433 133.180654,5.52286155 133.101212,5.73024375 C132.650587,6.95583637 132.111817,8.14760219 131.489075,9.29630625 C129.54289,12.7194375 128.758607,12.9056813 128.439084,12.687675 C127.698373,12.191025 127.887181,10.6967438 127.887181,9.6355875 C127.887181,6.3149625 128.380989,4.93329375 126.943137,4.5824625 C126.27887,4.41666343 125.59416,4.34616828 124.90981,4.37311875 C123.685816,4.25394835 122.450234,4.38463342 121.278869,4.75715625 C120.785061,5.0098125 120.39292,5.5699875 120.6253,5.60319375 C121.127815,5.65174611 121.591504,5.89308985 121.917915,6.27598125 C122.222715,6.91547546 122.37197,7.6172565 122.353628,8.3246625 C122.353628,8.3246625 122.615055,12.2300063 121.74363,12.7151063 C121.162679,13.0471688 120.349348,12.3686063 118.621021,9.2631 C118.028012,8.1685068 117.504143,7.03826996 117.052454,5.87895 C116.972657,5.68511708 116.848306,5.51255366 116.68936,5.37508125 C116.489191,5.23533731 116.261484,5.13938253 116.021267,5.09355 L111.867471,5.09355 C111.56054,5.09436832 111.263188,5.19986216 111.025092,5.39240625 C110.905048,5.6319306 110.894466,5.91121536 110.996045,6.1590375 C110.996045,6.1590375 114.249368,14.0996625 117.938404,18.0714188 C119.74277,20.1777681 122.360268,21.4257607 125.14219,21.5061 L126.885042,21.5104313 Z" id="Path" stroke="none" fill="#523598" fill-rule="evenodd"></path>
</svg>
