<svg width="29px" height="28px" viewBox="0 0 29 28" version="1.1" xmlns="http://www.w3.org/2000/svg" xmlns:xlink="http://www.w3.org/1999/xlink">
	<path d="M14.3694482,2.49913125 C18.0584841,2.49913125 18.494197,2.512125 19.9465733,2.5785375 C20.8242667,2.5892517 21.6936707,2.74891642 22.5172794,3.05064375 C23.717386,3.51317278 24.6662642,4.45641508 25.1315568,5.64939375 C25.4389194,6.46520221 25.6011008,7.32796348 25.610841,8.19905625 C25.6834598,9.64280625 25.6979835,10.0759312 25.6979835,13.7473875 C25.6979835,17.4188437 25.6834598,17.8476375 25.610841,19.2957187 C25.6013078,20.1668317 25.4391198,21.0296282 25.1315568,21.8453812 C24.6670367,23.0388603 23.7178894,23.9823702 22.5172794,24.4441312 C21.6940094,24.7472604 20.8244435,24.9074432 19.9465733,24.9176812 C18.494197,24.9840937 18.0584841,24.9970875 14.3694482,24.9970875 C10.6804124,24.9970875 10.2446995,24.9840937 8.79232315,24.9176812 C7.91445297,24.9074432 7.04488709,24.7472604 6.22161707,24.4441312 C5.02100705,23.9823702 4.07185971,23.0388603 3.60733969,21.8453812 C3.2997767,21.0296282 3.13758867,20.1668317 3.1280555,19.2957187 C3.05543669,17.8519687 3.04091292,17.4188437 3.04091292,13.7473875 C3.04091292,10.0759312 3.05543669,9.6471375 3.1280555,8.19905625 C3.13779565,7.32796348 3.29997705,6.46520221 3.60733969,5.64939375 C4.0726323,4.45641508 5.02151042,3.51317278 6.22161707,3.05064375 C7.04522577,2.74891642 7.91462977,2.5892517 8.79232315,2.5785375 C10.2446995,2.512125 10.6804124,2.49913125 14.3694482,2.49913125 L14.3694482,2.49913125 Z M14.3694482,0.02454375 C10.6223173,0.02454375 10.1430331,0.040425 8.67613305,0.1068375 C7.52959162,0.131087331 6.39536733,0.347311147 5.32114375,0.74641875 C3.46869425,1.46313753 2.00387243,2.91978289 1.28353757,4.7614875 C0.875059961,5.82621443 0.658729995,6.95422364 0.644491992,8.0936625 C0.571873176,9.557625 0.557349413,10.0254 0.557349413,13.7546062 C0.557349413,17.4838125 0.571873176,17.9515875 0.644491992,19.41555 C0.658729995,20.5549889 0.875059961,21.6829981 1.28353757,22.747725 C2.00445289,24.5893813 3.46900263,26.0462798 5.32114375,26.7642375 C6.39547567,27.1627725 7.52968362,27.3785051 8.67613305,27.402375 C10.1430331,27.4687875 10.6223173,27.4846687 14.3694482,27.4846687 C18.1165791,27.4846687 18.5958633,27.4687875 20.0627634,27.402375 C21.2092128,27.3785051 22.3434208,27.1627725 23.4177527,26.7642375 C25.2698938,26.0462798 26.7344436,24.5893813 27.4553589,22.747725 C27.8638365,21.6829981 28.0801665,20.5549889 28.0944045,19.41555 C28.1670233,17.9515875 28.181547,17.4838125 28.181547,13.7546062 C28.181547,10.0254 28.1670233,9.557625 28.0944045,8.0936625 C28.0801665,6.95422364 27.8638365,5.82621443 27.4553589,4.7614875 C26.735024,2.91978289 25.2702022,1.46313753 23.4177527,0.74641875 C22.3435291,0.347311147 21.2093048,0.131087331 20.0627634,0.1068375 C18.5958633,0.040425 18.1165791,0.02454375 14.3694482,0.02454375 L14.3694482,0.02454375 L14.3694482,0.02454375 Z M14.3694482,6.704775 C11.5006249,6.70302293 8.91330436,8.41954788 7.81423172,11.0537501 C6.71515907,13.6879523 7.32084056,16.7209206 9.34878192,18.7380564 C11.3767233,20.7551921 14.4274405,21.3591401 17.0780569,20.2682144 C19.7286733,19.1772887 21.4570441,16.6063909 21.4570447,13.7546062 C21.4574302,11.8860387 20.7107808,10.093914 19.3814733,8.77277259 C18.0521658,7.45163121 16.2491802,6.70978384 14.3694482,6.71055 L14.3694482,6.704775 Z M14.3694482,18.3312938 C11.826711,18.3312938 9.76541529,16.282241 9.76541529,13.7546063 C9.76541529,11.2269715 11.826711,9.17791875 14.3694482,9.17791875 C16.9121854,9.17791875 18.9734812,11.2269715 18.9734812,13.7546063 C18.9750232,14.9694195 18.4906377,16.1350021 17.6270468,16.9945469 C16.763456,17.8540917 15.5915209,18.3370697 14.3694482,18.3370688 L14.3694482,18.3312938 Z M23.4032289,6.4246875 C23.402427,7.3334908 22.6607861,8.06964982 21.7465525,8.06911847 C20.832319,8.06858712 20.0915446,7.33156653 20.0918116,6.42276292 C20.0920787,5.51395931 20.8332862,4.7773691 21.7475199,4.77736875 C22.1877831,4.77774963 22.6097978,4.95226766 22.9204291,5.26240826 C23.2310603,5.57254887 23.4047725,5.99281674 23.4032289,6.4304625 L23.4032289,6.4246875 Z" id="Shape" stroke="none" fill="#523598" fill-rule="evenodd"></path>
</svg>
