<svg width="20" height="14" xmlns="http://www.w3.org/2000/svg" xmlns:xlink="http://www.w3.org/1999/xlink"><defs><rect id="a" width="20" height="14" rx="1.479"/></defs><g fill="none" fill-rule="evenodd"><mask id="b" fill="#fff"><use xlink:href="#a"/></mask><use fill="#FFF" xlink:href="#a"/><path fill="#0A17A7" mask="url(#b)" d="M0 0h20v14H0z"/><path d="M4.872 9.333H0V4.667h4.872L-1.971.052l1.044-1.548L7.62 4.268V-.933h4.762v5.201l8.546-5.764L21.97.052l-6.843 4.615H20v4.666h-4.872l6.843 4.615-1.044 1.548-8.546-5.764v5.201H7.619V9.732l-8.546 5.764-1.044-1.548 6.843-4.615z" fill="#FFF" mask="url(#b)"/><path d="M13.334 4.433L22.381-1.4" stroke="#DB1F35" stroke-width=".5" stroke-linecap="round" mask="url(#b)"/><path d="M14.295 14.945l8.11-5.357" stroke="#DB1F35" stroke-width=".5" stroke-linecap="round" mask="url(#b)" transform="matrix(1 0 0 -1 0 24.533)"/><path d="M5.718 4.417l-8.46-5.587" stroke="#DB1F35" stroke-width=".5" stroke-linecap="round" mask="url(#b)"/><path d="M6.636 15.617l-9.377-6.094" stroke="#DB1F35" stroke-width=".5" stroke-linecap="round" mask="url(#b)" transform="matrix(1 0 0 -1 0 25.14)"/><path fill="#E6273E" mask="url(#b)" d="M0 8.4h8.571V14h2.858V8.4H20V5.6h-8.571V0H8.57v5.6H0z"/></g></svg>